<?xml version="1.0" encoding="UTF-8"?>
<svg id="Layer_1" xmlns="http://www.w3.org/2000/svg" version="1.1" viewBox="0 0 203.38 145.75">
  <!-- Generator: Adobe Illustrator 30.6.0, SVG Export Plug-In . SVG Version: 2.1.4 Build 109)  -->
  <defs>
    <style>
      .st0 {
        stroke-width: 2px;
      }

      .st0, .st1 {
        stroke: #000;
        stroke-miterlimit: 10;
      }

      .st1 {
        stroke-width: .75px;
      }
    </style>
  </defs>
  <g>
    <path d="M60.39,73.3c-17.46-10.15-34.92-20.31-52.37-30.46-1.67-.97-3.76.22-3.79,2.14-.31,22.33-.63,44.66-.94,66.99-.02,1.41,1.11,2.56,2.52,2.56h1.69c1.39,0,2.52-1.13,2.52-2.52v-57.36c0-1.94,2.09-3.15,3.77-2.19,14.69,8.4,29.39,16.8,44.08,25.21,1.68.96,3.77-.25,3.77-2.19h0c0-.9-.48-1.73-1.25-2.18Z"/>
    <path d="M61.91,70.71c-12.95-7.53-25.91-15.07-38.86-22.6-2.82-1.64-5.63-3.28-8.45-4.91-2.18-1.27-4.63-3.34-7.22-3.64-4.74-.55-6.05,3.65-6.18,7.4-.51,14.76-.42,29.57-.62,44.33-.09,6.72-1.04,14.01-.29,20.69.44,3.93,3.37,5.92,7.21,5.56,5.25-.5,5.52-4.87,5.52-8.98v-47.55c0-1.51-.49-3.88,0-5.3s-1.26-1.11.95.32c3.27,2.1,6.8,3.89,10.17,5.82,6.78,3.88,13.56,7.76,20.34,11.63,3.83,2.19,7.78,5.16,11.87,6.79,1.69.68,3.34,1.04,5.08.2,3.94-1.89,3.86-6.48,1.07-9.28s-6.97,1.5-4.24,4.24l-.58-1.31c-.85-.48-1.7-.97-2.54-1.45-1.41-.81-2.83-1.62-4.24-2.42-2.26-1.29-4.52-2.59-6.78-3.88-5.65-3.23-11.3-6.46-16.95-9.69-4.3-2.46-17.21-13.06-19.93-3.34-.61,2.18-.22,4.83-.22,7.04v47.67c0,1.04.24,2.42,0,3.43-.04.15.07.39,0,.52.48-.98-.59-.14-.77-.46-.59-1.04.1-4.12.12-5.47.18-12.48.35-24.96.53-37.44.05-3.28.09-6.57.14-9.85s-.51-6.83.14-9.85c.49-2.31-.33-2.5,1.86-2.02,1.66.37,3.58,2.08,5.07,2.95,3.1,1.8,6.19,3.6,9.29,5.4,11.83,6.88,23.65,13.76,35.48,20.63,3.34,1.94,6.37-3.24,3.03-5.18Z"/>
  </g>
  <g>
    <path d="M17.81,87.77c11.13,6.18,22.25,12.36,33.38,18.54,1.49.83,3.32-.25,3.32-1.95h0c0-.81-.44-1.55-1.14-1.95-11.13-6.25-22.25-12.5-33.38-18.75-1.49-.84-3.33.24-3.33,1.95v.2c0,.81.44,1.56,1.15,1.95Z"/>
    <path d="M16.29,90.36c10.57,5.87,21.08,11.85,31.71,17.62,2.95,1.6,6.67,2.58,8.78-.96,1.46-2.45.5-5.3-1.6-6.96-4.44-3.5-10.39-5.9-15.32-8.67-5.29-2.97-10.57-5.94-15.86-8.9-2.94-1.65-6.55-3.43-9.15-.13-1.94,2.46-1.26,5.49.84,7.54,2.77,2.7,7.01-1.54,4.24-4.24-.27,1.09.08,1.77,1.04,2.02.56.31,1.11.62,1.67.94,1.39.78,2.78,1.56,4.17,2.34,2.78,1.56,5.56,3.12,8.35,4.69,2.5,1.41,5.01,2.81,7.51,4.22,1.27.72,7.19,4.7,7.94,3.58.8-1.21-4.8-3.54-6.25-4.35-2.78-1.55-5.56-3.09-8.35-4.64-5.56-3.09-11.13-6.18-16.69-9.27-3.38-1.88-6.41,3.3-3.03,5.18Z"/>
  </g>
  <g>
    <path d="M128.71,42.69c-19.62,9.26-39.23,18.52-58.85,27.78-.65.31-1.06.94-1.06,1.64v68.87c0,1.41,1.59,2.29,2.85,1.58,19.62-10.93,39.23-21.86,58.85-32.78.59-.33.95-.93.95-1.58v-27.43c0-1.38-1.52-2.26-2.79-1.62-10.56,5.37-21.12,10.73-31.67,16.1-.62.32-1.01.94-1.01,1.62,0,1.36,1.49,2.25,2.76,1.63,8.45-4.12,16.91-8.23,25.36-12.35,1.26-.62,2.76.27,2.76,1.63v17c0,.65-.35,1.24-.93,1.57l-50,28.6c-1.27.72-2.87-.15-2.87-1.57v-57.7c0-.69.41-1.33,1.05-1.64,18.77-9,37.53-18.01,56.3-27.01.65-.31,1.05-.94,1.05-1.64v-1.06c0-1.35-1.47-2.24-2.74-1.64Z"/>
    <path d="M127.19,40.1c-15.75,7.44-31.5,14.87-47.26,22.31-4.37,2.07-13.45,4.04-14.14,9.73-.15,1.25,0,2.62,0,3.87v60.45c0,2.43-.52,5.56,1.15,7.59,3.9,4.73,11.24-1.68,14.88-3.71,15.58-8.68,31.16-17.36,46.73-26.03,3.5-1.95,5.69-3.06,5.9-7.18.17-3.38,0-6.82,0-10.21v-12.23c0-1.96.39-4.58-.67-6.36-3.3-5.59-10.92.41-14.55,2.25s-7.63,3.87-11.44,5.81-8.79,3.67-12.32,6.26c-3.11,2.28-3.38,7.08.61,8.66,2.42.96,4.57-.42,6.7-1.46,3.94-1.92,7.89-3.84,11.83-5.76,1.5-.73,10.95-4.32,9.23-6.24.44.49,0,3.12,0,3.76,0,3.79-.33,7.74,0,11.52.15,1.73-.33,1.33.43.7-.42.34-1.05.64-1.54.88-2.38,1.19-4.66,2.67-6.97,3.99-7.17,4.1-14.34,8.2-21.5,12.3-5.95,3.4-11.9,6.81-17.85,10.21-.29.16-1.5.62-1.62.93-.24.6.84,1.35,1.25.96.56-.52,0-4.77,0-5.47v-46.51c0-1.12-.58-4.2,0-5.16.32-.53,5.4-2.12,6.6-2.7,4.11-1.97,8.21-3.94,12.32-5.91,7.92-3.8,15.83-7.6,23.75-11.39,3.81-1.83,7.66-3.58,11.44-5.49,2.18-1.1,3.88-2.08,4.24-4.67.59-4.14-2.54-6.75-6.48-5.99s-2.18,6.51,1.6,5.79l-1.06-.72c-1.09.28-2.11.7-3.09,1.26-1.78.79-3.52,1.69-5.28,2.53-3.52,1.69-7.04,3.38-10.56,5.06-7.62,3.66-15.25,7.31-22.87,10.97-3.52,1.69-7.04,3.38-10.56,5.06-2.15,1.03-4.68,1.79-5.67,4.16-.56,1.34-.39,2.88-.39,4.29v42.79c0,4.01-.49,8.37,0,12.36.75,6.21,6.17,4.88,9.98,2.7,12.23-6.99,24.46-13.99,36.68-20.98,3.48-1.99,7.48-3.73,10.71-6.12,4.4-3.27,2.44-12.61,2.44-17.34,0-2.26.42-5.01-1.13-6.88-3.75-4.53-10.89,1.13-14.59,2.93-3.38,1.65-6.76,3.29-10.14,4.94-.49.24-5.04,2.06-5.07,2.47-.29,3.8,3.97.53,4.87.07,3.52-1.79,7.04-3.58,10.56-5.37,3.72-1.89,9.18-3.54,12.32-6.26,1.13-.98,2.8-.71,1.79-2.58.09.16,0,.72,0,.89.01,1.2,0,2.39,0,3.59v11.98c0,2.78.69,6.58,0,9.28-.09.36.2,1.15,0,1.47,0,0-4.23,1.69-4.66,1.93-2.31,1.29-4.62,2.57-6.92,3.86-6.92,3.86-13.85,7.71-20.77,11.57-3.46,1.93-6.92,3.86-10.39,5.79-3.7,2.06-9,3.91-12.12,6.75l-1.73.96c-.05,1.94-.08,2.3-.07,1.1-.06-.87,0-1.78,0-2.65v-55.46c0-2.55-.4-5.45,0-7.97.07-.45-.21-1.32,0-1.73.48-.92-4.26,3.15,1.36-.08,2.25-1.29,4.78-2.26,7.13-3.37,16.64-7.86,33.29-15.72,49.93-23.57,3.49-1.65.45-6.82-3.03-5.18Z"/>
  </g>
  <g>
    <path d="M15.59,31.04C32.68,21.78,49.78,12.51,66.88,3.24c1.05-.57,2.32-.57,3.37-.01,17.24,9.2,34.49,18.4,51.73,27.59,2.38,1.27,2.54,4.62.29,6.11l-.43.29c-1.11.73-2.54.79-3.7.14-15.8-8.79-31.6-17.59-47.4-26.38-1.07-.59-2.36-.6-3.43-.02-16.11,8.78-32.21,17.56-48.32,26.33-1.25.68-2.77.55-3.89-.32h0c-2.02-1.58-1.76-4.71.49-5.94Z"/>
    <path d="M17.1,33.63c9.12-4.94,18.24-9.89,27.36-14.83,4.56-2.47,9.12-4.94,13.68-7.41,4.79-2.59,8.59-5.86,14.05-3.73,4.74,1.84,9.31,4.96,13.79,7.36s9.2,4.91,13.79,7.36,9.2,4.91,13.79,7.36c1.15.61,6.48,2.55,6.9,3.68.95,2.56-2.36.42-3.35-.05-8.96-4.32-17.54-9.77-26.24-14.6-4.51-2.51-9.03-5.03-13.54-7.54-2.79-1.55-5.89-4.09-9.3-3.59-3.75.56-7.6,3.66-10.87,5.45-4.6,2.51-9.2,5.02-13.81,7.52s-9.2,5.02-13.81,7.52c-2.3,1.25-4.6,2.51-6.9,3.76-1.15.63-2.3,1.25-3.45,1.88-2.05,1.73-2.55,1.53-1.49-.6,3.03-2.38-1.24-6.6-4.24-4.24-4.29,3.37-3.13,10.44,2.46,11.63,3.55.75,6.83-1.88,9.75-3.48,4.89-2.66,9.78-5.33,14.67-7.99,4.6-2.51,9.2-5.02,13.81-7.52,4.29-2.34,11.72-8.35,16.77-7.04,2.23.58,4.74,2.64,6.77,3.77,2.26,1.26,4.51,2.51,6.77,3.77,4.51,2.51,9.03,5.03,13.54,7.54s9.03,5.03,13.54,7.54c3.11,1.73,6.5,4.48,10.25,3.34,4.59-1.4,6.67-7.04,3.42-10.8-2.58-2.99-7.76-4.65-11.21-6.49-4.89-2.61-9.77-5.21-14.66-7.82-4.31-2.3-8.62-4.6-12.93-6.9-4.78-2.55-9.63-5.84-14.66-7.82-3.91-1.54-6.28-.05-9.82,1.86-5.13,2.78-10.26,5.56-15.39,8.34-10.83,5.87-21.66,11.74-32.49,17.61-3.4,1.84-.37,7.02,3.03,5.18Z"/>
  </g>
  <ellipse class="st0" cx="68.79" cy="40.1" rx="7.9" ry="5.64"/>
  <path class="st1" d="M203.38,102.61"/>
</svg>